<mxfile host="app.diagrams.net" modified="2024-03-01T04:37:25.736Z" agent="Mozilla/5.0 (Windows NT 10.0; Win64; x64) AppleWebKit/537.36 (KHTML, like Gecko) Chrome/122.0.0.0 Safari/537.36 Edg/122.0.0.0" etag="ezpu4YmXM9nohR2xzaSo" version="24.0.0" type="github">
  <diagram id="C5RBs43oDa-KdzZeNtuy" name="Page-1">
    <mxGraphModel dx="832" dy="447" grid="1" gridSize="10" guides="1" tooltips="1" connect="1" arrows="1" fold="1" page="1" pageScale="1" pageWidth="827" pageHeight="1169" background="none" math="0" shadow="0">
      <root>
        <mxCell id="WIyWlLk6GJQsqaUBKTNV-0" />
        <mxCell id="WIyWlLk6GJQsqaUBKTNV-1" parent="WIyWlLk6GJQsqaUBKTNV-0" />
        <mxCell id="WuzCzDK2jLKwMSGD9dU1-18" style="edgeStyle=orthogonalEdgeStyle;rounded=0;orthogonalLoop=1;jettySize=auto;html=1;exitX=0.5;exitY=0;exitDx=0;exitDy=0;entryX=0;entryY=0.25;entryDx=0;entryDy=0;" parent="WIyWlLk6GJQsqaUBKTNV-1" source="WuzCzDK2jLKwMSGD9dU1-0" target="WuzCzDK2jLKwMSGD9dU1-6" edge="1">
          <mxGeometry relative="1" as="geometry">
            <mxPoint x="290" y="160" as="targetPoint" />
            <Array as="points">
              <mxPoint x="290" y="182" />
            </Array>
          </mxGeometry>
        </mxCell>
        <mxCell id="WuzCzDK2jLKwMSGD9dU1-0" value="Sí" style="rounded=0;whiteSpace=wrap;html=1;" parent="WIyWlLk6GJQsqaUBKTNV-1" vertex="1">
          <mxGeometry x="270" y="345" width="40" height="30" as="geometry" />
        </mxCell>
        <mxCell id="WuzCzDK2jLKwMSGD9dU1-23" style="edgeStyle=orthogonalEdgeStyle;rounded=0;orthogonalLoop=1;jettySize=auto;html=1;exitX=0.5;exitY=1;exitDx=0;exitDy=0;entryX=0.5;entryY=0;entryDx=0;entryDy=0;" parent="WIyWlLk6GJQsqaUBKTNV-1" source="WuzCzDK2jLKwMSGD9dU1-1" target="WuzCzDK2jLKwMSGD9dU1-3" edge="1">
          <mxGeometry relative="1" as="geometry" />
        </mxCell>
        <mxCell id="WuzCzDK2jLKwMSGD9dU1-1" value="Mostrar Información" style="rounded=0;whiteSpace=wrap;html=1;" parent="WIyWlLk6GJQsqaUBKTNV-1" vertex="1">
          <mxGeometry x="335" y="500" width="150" height="40" as="geometry" />
        </mxCell>
        <mxCell id="WuzCzDK2jLKwMSGD9dU1-24" style="edgeStyle=orthogonalEdgeStyle;rounded=0;orthogonalLoop=1;jettySize=auto;html=1;exitX=0.5;exitY=1;exitDx=0;exitDy=0;entryX=0.5;entryY=0;entryDx=0;entryDy=0;" parent="WIyWlLk6GJQsqaUBKTNV-1" source="WuzCzDK2jLKwMSGD9dU1-3" edge="1">
          <mxGeometry relative="1" as="geometry">
            <mxPoint x="410" y="670" as="targetPoint" />
          </mxGeometry>
        </mxCell>
        <mxCell id="WuzCzDK2jLKwMSGD9dU1-3" value="Calcular Impuestos" style="rounded=0;whiteSpace=wrap;html=1;" parent="WIyWlLk6GJQsqaUBKTNV-1" vertex="1">
          <mxGeometry x="335" y="600" width="150" height="40" as="geometry" />
        </mxCell>
        <mxCell id="79LE2j4KPR2pl7b9odM7-0" style="edgeStyle=orthogonalEdgeStyle;rounded=0;orthogonalLoop=1;jettySize=auto;html=1;exitX=0.5;exitY=1;exitDx=0;exitDy=0;entryX=0.5;entryY=0;entryDx=0;entryDy=0;" edge="1" parent="WIyWlLk6GJQsqaUBKTNV-1" source="WuzCzDK2jLKwMSGD9dU1-4" target="WuzCzDK2jLKwMSGD9dU1-15">
          <mxGeometry relative="1" as="geometry" />
        </mxCell>
        <mxCell id="WuzCzDK2jLKwMSGD9dU1-4" value="Modificar Precio" style="shape=parallelogram;perimeter=parallelogramPerimeter;whiteSpace=wrap;html=1;fixedSize=1;" parent="WIyWlLk6GJQsqaUBKTNV-1" vertex="1">
          <mxGeometry x="330" y="240" width="160" height="40" as="geometry" />
        </mxCell>
        <mxCell id="WuzCzDK2jLKwMSGD9dU1-13" style="edgeStyle=orthogonalEdgeStyle;rounded=0;orthogonalLoop=1;jettySize=auto;html=1;exitX=0.5;exitY=1;exitDx=0;exitDy=0;entryX=0.5;entryY=0;entryDx=0;entryDy=0;" parent="WIyWlLk6GJQsqaUBKTNV-1" source="WuzCzDK2jLKwMSGD9dU1-6" target="WuzCzDK2jLKwMSGD9dU1-4" edge="1">
          <mxGeometry relative="1" as="geometry" />
        </mxCell>
        <mxCell id="WuzCzDK2jLKwMSGD9dU1-6" value="Seleccionar Producto" style="shape=parallelogram;perimeter=parallelogramPerimeter;whiteSpace=wrap;html=1;fixedSize=1;" parent="WIyWlLk6GJQsqaUBKTNV-1" vertex="1">
          <mxGeometry x="330" y="170" width="160" height="40" as="geometry" />
        </mxCell>
        <mxCell id="WuzCzDK2jLKwMSGD9dU1-7" value="&lt;span style=&quot;font-size: 16px;&quot;&gt;&lt;b&gt;PRECIOS PRODUCTOS&lt;/b&gt;&lt;/span&gt;" style="text;html=1;align=center;verticalAlign=middle;resizable=0;points=[];autosize=1;strokeColor=none;fillColor=none;" parent="WIyWlLk6GJQsqaUBKTNV-1" vertex="1">
          <mxGeometry x="170" y="70" width="200" height="30" as="geometry" />
        </mxCell>
        <mxCell id="WuzCzDK2jLKwMSGD9dU1-12" style="edgeStyle=orthogonalEdgeStyle;rounded=0;orthogonalLoop=1;jettySize=auto;html=1;exitX=0.5;exitY=1;exitDx=0;exitDy=0;entryX=0.5;entryY=0;entryDx=0;entryDy=0;" parent="WIyWlLk6GJQsqaUBKTNV-1" source="WuzCzDK2jLKwMSGD9dU1-8" target="WuzCzDK2jLKwMSGD9dU1-6" edge="1">
          <mxGeometry relative="1" as="geometry" />
        </mxCell>
        <mxCell id="WuzCzDK2jLKwMSGD9dU1-8" value="&lt;b&gt;INICIO&lt;/b&gt;" style="ellipse;whiteSpace=wrap;html=1;" parent="WIyWlLk6GJQsqaUBKTNV-1" vertex="1">
          <mxGeometry x="370" y="90" width="80" height="40" as="geometry" />
        </mxCell>
        <mxCell id="WuzCzDK2jLKwMSGD9dU1-9" value="&lt;b&gt;FIN&lt;/b&gt;" style="ellipse;whiteSpace=wrap;html=1;" parent="WIyWlLk6GJQsqaUBKTNV-1" vertex="1">
          <mxGeometry x="370" y="670" width="80" height="40" as="geometry" />
        </mxCell>
        <mxCell id="WuzCzDK2jLKwMSGD9dU1-17" style="edgeStyle=orthogonalEdgeStyle;rounded=0;orthogonalLoop=1;jettySize=auto;html=1;exitX=0;exitY=0.5;exitDx=0;exitDy=0;" parent="WIyWlLk6GJQsqaUBKTNV-1" source="WuzCzDK2jLKwMSGD9dU1-15" target="WuzCzDK2jLKwMSGD9dU1-0" edge="1">
          <mxGeometry relative="1" as="geometry" />
        </mxCell>
        <mxCell id="WuzCzDK2jLKwMSGD9dU1-20" style="edgeStyle=orthogonalEdgeStyle;rounded=0;orthogonalLoop=1;jettySize=auto;html=1;exitX=0.5;exitY=1;exitDx=0;exitDy=0;entryX=0.5;entryY=0;entryDx=0;entryDy=0;" parent="WIyWlLk6GJQsqaUBKTNV-1" source="WuzCzDK2jLKwMSGD9dU1-15" target="WuzCzDK2jLKwMSGD9dU1-19" edge="1">
          <mxGeometry relative="1" as="geometry" />
        </mxCell>
        <mxCell id="WuzCzDK2jLKwMSGD9dU1-15" value="&lt;font style=&quot;font-size: 10px;&quot;&gt;¿Más Productos para modificar Precio?&lt;/font&gt;" style="rhombus;whiteSpace=wrap;html=1;" parent="WIyWlLk6GJQsqaUBKTNV-1" vertex="1">
          <mxGeometry x="355" y="320" width="110" height="80" as="geometry" />
        </mxCell>
        <mxCell id="WuzCzDK2jLKwMSGD9dU1-22" style="edgeStyle=orthogonalEdgeStyle;rounded=0;orthogonalLoop=1;jettySize=auto;html=1;exitX=0.5;exitY=1;exitDx=0;exitDy=0;entryX=0.5;entryY=0;entryDx=0;entryDy=0;" parent="WIyWlLk6GJQsqaUBKTNV-1" source="WuzCzDK2jLKwMSGD9dU1-19" target="WuzCzDK2jLKwMSGD9dU1-1" edge="1">
          <mxGeometry relative="1" as="geometry" />
        </mxCell>
        <mxCell id="WuzCzDK2jLKwMSGD9dU1-19" value="No" style="rounded=0;whiteSpace=wrap;html=1;" parent="WIyWlLk6GJQsqaUBKTNV-1" vertex="1">
          <mxGeometry x="390" y="430" width="40" height="30" as="geometry" />
        </mxCell>
      </root>
    </mxGraphModel>
  </diagram>
</mxfile>
